{
  "accessors": [
    {
      "bufferView": 3,
      "componentType": 5126,
      "count": 665,
      "max": [
        5.0957865715026855,
        21.879213333129883,
        4.555757999420166
      ],
      "min": [
        -5.014434337615967,
        -0.09205040335655212,
        -4.5206780433654785
      ],
      "type": "VEC3"
    },
    {
      "bufferView": 3,
      "byteOffset": 7980,
      "componentType": 5126,
      "count": 665,
      "max": [
        0.9931470155715942,
        0.9987706542015076,
        0.9978261590003967
      ],
      "min": [
        -0.9990307092666626,
        -0.999919593334198,
        -0.9965053200721741
      ],
      "type": "VEC3"
    },
    {
      "bufferView": 2,
      "componentType": 5126,
      "count": 665,
      "max": [
        0.995083212852478,
        0.9932883381843567
      ],
      "min": [
        0.006731510162353516,
        0.006504669785499573
      ],
      "type": "VEC2"
    },
    {
      "bufferView": 1,
      "componentType": 5125,
      "count": 2424,
      "type": "SCALAR"
    },
    {
      "bufferView": 5,
      "componentType": 5126,
      "count": 18,
      "max": [
        1.0,
        0.25029462575912476,
        0.003894318360835314,
        0.0,
        0.2626185417175293,
        1.0,
        0.2604355216026306,
        0.0,
        0.0059807742945849895,
        0.19370485842227936,
        1.0,
        0.0,
        1.6857595443725586,
        0.677288293838501,
        0.0,
        1.0
      ],
      "min": [
        -0.24949806928634644,
        -0.25029462575912476,
        -0.036896415054798126,
        0.0,
        -0.2626185715198517,
        -0.26166844367980957,
        -0.03873487934470177,
        0.0,
        -0.0005406056880019605,
        -0.028023872524499893,
        7.224249198856114e-09,
        0.0,
        -1.6857188940048218,
        -1.870191216468811,
        -0.2746809720993042,
        1.0
      ],
      "type": "MAT4"
    },
    {
      "bufferView": 0,
      "componentType": 5123,
      "count": 665,
      "type": "VEC4"
    },
    {
      "bufferView": 4,
      "componentType": 5126,
      "count": 665,
      "max": [
        1.0,
        0.4802201986312866,
        0.3047225773334503,
        0.16321714222431183
      ],
      "min": [
        0.34876635670661926,
        0.0,
        0.0,
        0.0
      ],
      "type": "VEC4"
    }
  ],
  "asset": {
    "extras": {
      "author": "yaseminyagci (https://sketchfab.com/yaseminyagci)",
      "license": "CC-BY-4.0 (http://creativecommons.org/licenses/by/4.0/)",
      "source": "https://sketchfab.com/3d-models/manager-7e2c4f19e59f4fbc93e0f2fcb0e0cbe9",
      "title": "Manager"
    },
    "generator": "Sketchfab-12.59.0",
    "version": "2.0"
  },
  "bufferViews": [
    {
      "buffer": 0,
      "byteLength": 5320,
      "byteStride": 8,
      "name": "shortBufferViews",
      "target": 34962
    },
    {
      "buffer": 0,
      "byteLength": 9696,
      "byteOffset": 5320,
      "name": "floatBufferViews",
      "target": 34963
    },
    {
      "buffer": 0,
      "byteLength": 5320,
      "byteOffset": 15016,
      "byteStride": 8,
      "name": "floatBufferViews",
      "target": 34962
    },
    {
      "buffer": 0,
      "byteLength": 15960,
      "byteOffset": 20336,
      "byteStride": 12,
      "name": "floatBufferViews",
      "target": 34962
    },
    {
      "buffer": 0,
      "byteLength": 10640,
      "byteOffset": 36296,
      "byteStride": 16,
      "name": "floatBufferViews",
      "target": 34962
    },
    {
      "buffer": 0,
      "byteLength": 1152,
      "byteOffset": 46936,
      "name": "floatBufferViews"
    }
  ],
  "buffers": [
    {
      "byteLength": 48088,
      "uri": "scene.bin"
    }
  ],
  "extensionsUsed": [
    "KHR_materials_unlit"
  ],
  "images": [
    {
      "uri": "textures/Material_baseColor.png"
    }
  ],
  "materials": [
    {
      "doubleSided": true,
      "extensions": {
        "KHR_materials_unlit": {}
      },
      "name": "Material",
      "pbrMetallicRoughness": {
        "baseColorTexture": {
          "index": 0
        },
        "metallicFactor": 0.0
      }
    }
  ],
  "meshes": [
    {
      "name": "Body_Material_0",
      "primitives": [
        {
          "attributes": {
            "JOINTS_0": 5,
            "NORMAL": 1,
            "POSITION": 0,
            "TEXCOORD_0": 2,
            "WEIGHTS_0": 6
          },
          "indices": 3,
          "material": 0,
          "mode": 4
        }
      ]
    }
  ],
  "nodes": [
    {
      "children": [
        1
      ],
      "matrix": [
        1.0,
        0.0,
        0.0,
        0.0,
        0.0,
        2.220446049250313e-16,
        -1.0,
        0.0,
        0.0,
        1.0,
        2.220446049250313e-16,
        0.0,
        0.0,
        4.588577553477083e-07,
        -1.4660782881037449e-06,
        1.0
      ],
      "name": "Sketchfab_model"
    },
    {
      "children": [
        2
      ],
      "matrix": [
        0.009999999776482582,
        0.0,
        0.0,
        0.0,
        0.0,
        0.0,
        0.009999999776482582,
        0.0,
        0.0,
        -0.009999999776482582,
        0.0,
        0.0,
        0.0,
        0.0,
        0.0,
        1.0
      ],
      "name": "c2afc33ad8124aaf8431b41994f999b5.fbx"
    },
    {
      "children": [
        3
      ],
      "name": "RootNode"
    },
    {
      "children": [
        4
      ],
      "matrix": [
        100.0,
        0.0,
        0.0,
        0.0,
        0.0,
        -1.629206793918314e-05,
        -99.99999999999868,
        0.0,
        0.0,
        99.99999999999868,
        -1.629206793918314e-05,
        0.0,
        0.0949174165725708,
        80.01499938964844,
        66.6345443725586,
        1.0
      ],
      "name": "Armature"
    },
    {
      "children": [
        5,
        7,
        6
      ],
      "name": "Object_4"
    },
    {
      "children": [
        8
      ],
      "name": "_rootJoint"
    },
    {
      "matrix": [
        24.407055974006653,
        -0.5933971144258975,
        5.801588296890259,
        0.0,
        6.0750981543907825,
        -0.5450885042995475,
        -25.613453944501654,
        0.0,
        0.5383028538504507,
        19.360913335295432,
        -0.2843493358474849,
        0.0,
        -0.09149470133706927,
        -1.8435819149017334,
        -20.724820613861084,
        1.0
      ],
      "name": "Object_6"
    },
    {
      "mesh": 0,
      "name": "Object_7",
      "skin": 0
    },
    {
      "children": [
        9,
        19,
        22
      ],
      "name": "Bone_01",
      "rotation": [
        0.7071068286895752,
        0.0,
        0.0,
        0.7071067094802856
      ],
      "translation": [
        0.0,
        0.3916645050048828,
        0.0
      ]
    },
    {
      "children": [
        10
      ],
      "name": "Bone.001_02",
      "scale": [
        1.0,
        0.9999999403953552,
        1.0
      ],
      "translation": [
        0.0,
        0.36229634284973145,
        0.0
      ]
    },
    {
      "children": [
        11,
        13,
        16
      ],
      "name": "Bone.002_03",
      "translation": [
        0.0,
        0.19239655137062073,
        0.0
      ]
    },
    {
      "children": [
        12
      ],
      "name": "Bone.003_04",
      "rotation": [
        0.0,
        1.1920926112907182e-07,
        0.0,
        1.0
      ],
      "scale": [
        1.0,
        0.9999999403953552,
        1.0
      ],
      "translation": [
        0.0,
        0.405407190322876,
        0.0
      ]
    },
    {
      "name": "Bone.004_05",
      "rotation": [
        0.0,
        1.4210854715202004e-14,
        0.0,
        1.0
      ],
      "translation": [
        0.0,
        0.10994088649749756,
        0.0
      ]
    },
    {
      "children": [
        14
      ],
      "name": "Bone.005_06",
      "rotation": [
        8.503350557020894e-08,
        3.178188308083918e-07,
        -0.7324219942092896,
        0.6808509826660156
      ],
      "scale": [
        0.9999999403953552,
        0.9999999403953552,
        1.0
      ],
      "translation": [
        0.3274972438812256,
        0.27224308252334595,
        -0.05452132225036621
      ]
    },
    {
      "children": [
        15
      ],
      "name": "Bone.006_07",
      "rotation": [
        1.7438746624520718e-07,
        3.075356289627962e-07,
        0.0005721526104025543,
        0.9999999403953552
      ],
      "scale": [
        0.9999999403953552,
        0.9999999403953552,
        1.0
      ],
      "translation": [
        6.613601044591633e-08,
        0.34082701802253723,
        -2.2168336499817087e-08
      ]
    },
    {
      "name": "Bone.007_08",
      "rotation": [
        2.955765587842052e-08,
        8.181576305332783e-08,
        -0.023562325164675713,
        0.9997224807739258
      ],
      "scale": [
        1.0,
        1.0000001192092896,
        1.0
      ],
      "translation": [
        -2.8142267183284275e-08,
        0.3296163082122803,
        1.9013128849110217e-08
      ]
    },
    {
      "children": [
        17
      ],
      "name": "Bone.011_09",
      "rotation": [
        2.8314652809058316e-06,
        -2.8708695936074946e-06,
        0.7324221134185791,
        0.6808509230613708
      ],
      "translation": [
        -0.32905930280685425,
        0.2722429633140564,
        -0.05452132225036621
      ]
    },
    {
      "children": [
        18
      ],
      "name": "Bone.012_010",
      "rotation": [
        1.7286782849623705e-07,
        4.536567303148331e-06,
        -0.0005722438800148666,
        0.9999999403953552
      ],
      "scale": [
        0.9999999403953552,
        0.9999999403953552,
        1.0
      ],
      "translation": [
        -1.4881152310408652e-08,
        0.340827077627182,
        -9.036767778525245e-09
      ]
    },
    {
      "name": "Bone.013_011",
      "rotation": [
        -3.796901282271392e-08,
        5.952392143626639e-07,
        0.023562517017126083,
        0.9997223615646362
      ],
      "scale": [
        1.0,
        0.9999999403953552,
        1.0
      ],
      "translation": [
        -6.821005626989063e-08,
        0.3296162486076355,
        2.7136046298892325e-08
      ]
    },
    {
      "children": [
        20
      ],
      "name": "Bone.008_012",
      "rotation": [
        -0.0005324309458956122,
        0.005893646273761988,
        0.9972692131996155,
        -0.0736144632101059
      ],
      "scale": [
        1.0000029802322388,
        1.0,
        0.9999999403953552
      ],
      "translation": [
        0.2306051105260849,
        -0.08906608819961548,
        -0.048917919397354126
      ]
    },
    {
      "children": [
        21
      ],
      "name": "Bone.009_013",
      "rotation": [
        -0.07841002941131592,
        0.0012320030946284533,
        -0.01992969587445259,
        0.9967212080955505
      ],
      "scale": [
        1.0000001192092896,
        1.0000001192092896,
        1.0
      ],
      "translation": [
        -2.0736479200422764e-09,
        0.29031941294670105,
        2.5960616767406464e-08
      ]
    },
    {
      "name": "Bone.010_014",
      "rotation": [
        0.7563769221305847,
        0.013123863376677036,
        0.015180232003331184,
        0.6538282036781311
      ],
      "scale": [
        0.9999999403953552,
        1.0,
        1.0
      ],
      "translation": [
        -6.3182596932165325e-09,
        0.356216162443161,
        4.237517714500427e-08
      ]
    },
    {
      "children": [
        23
      ],
      "name": "Bone.014_015",
      "rotation": [
        -0.001065397053025663,
        0.006013207137584686,
        0.9984520673751831,
        0.05528439208865166
      ],
      "scale": [
        0.9999856352806091,
        0.9999999403953552,
        0.9999997615814209
      ],
      "translation": [
        -0.2428903579711914,
        -0.08906617760658264,
        -0.048917919397354126
      ]
    },
    {
      "children": [
        24
      ],
      "name": "Bone.015_016",
      "rotation": [
        -0.07842493057250977,
        -0.01705336943268776,
        0.002718184143304825,
        0.996770441532135
      ],
      "scale": [
        0.9999999403953552,
        1.0,
        0.9999998807907104
      ],
      "translation": [
        7.683411240577698e-09,
        0.2889397442340851,
        -2.1245796233415604e-09
      ]
    },
    {
      "name": "Bone.016_017",
      "rotation": [
        0.7517983913421631,
        0.09326197952032089,
        0.0844746008515358,
        0.6472755670547485
      ],
      "scale": [
        1.0,
        1.0,
        1.0000001192092896
      ],
      "translation": [
        2.3283064365386963e-08,
        0.3562161922454834,
        1.1641532182693481e-08
      ]
    }
  ],
  "samplers": [
    {
      "magFilter": 9729,
      "minFilter": 9987,
      "wrapS": 10497,
      "wrapT": 10497
    }
  ],
  "scene": 0,
  "scenes": [
    {
      "name": "Sketchfab_Scene",
      "nodes": [
        0
      ]
    }
  ],
  "skins": [
    {
      "inverseBindMatrices": 4,
      "joints": [
        5,
        8,
        9,
        10,
        11,
        12,
        13,
        14,
        15,
        16,
        17,
        18,
        19,
        20,
        21,
        22,
        23,
        24
      ],
      "skeleton": 5
    }
  ],
  "textures": [
    {
      "sampler": 0,
      "source": 0
    }
  ]
}
